<?xml version="1.0" encoding="utf-8"?>
<!-- Generator: Adobe Illustrator 27.1.1, SVG Export Plug-In . SVG Version: 6.00 Build 0)  -->
<svg version="1.1" id="Layer_1" xmlns="http://www.w3.org/2000/svg" xmlns:xlink="http://www.w3.org/1999/xlink" x="0px" y="0px"
	 viewBox="0 0 490.7 726.3" style="enable-background:new 0 0 490.7 726.3;" xml:space="preserve">
<style type="text/css">
	.st0{display:none;}
	.st1{display:inline;fill:#FFBEA7;}
	.st2{fill:#E9EEF1;}
	.st3{fill:#FD8A29;}
	.st4{fill:#CCD1D3;}
	.st5{fill:#F2F7F9;}
	.st6{fill:#DBE0E2;}
	.st7{fill:#F1AB90;}
	.st8{fill:#DADFE2;}
	.st9{fill:#DDE2E5;}
	.st10{fill:#EC772A;}
	.st11{fill:#C8601A;}
	.st12{fill:#D8671D;}
	.st13{fill:#E77B2A;}
</style>
<g id="Background" class="st0">
	<rect x="-956.3" y="-370" class="st1" width="2400" height="1350"/>
</g>
<g id="Icons">
	<g id="scissor">
		<path class="st2" d="M980.9,344.5c-4.9,13.6,49.4-47.6,35.3-40.3L775.1,22.9c-25.5,42.6-18.8,97,16.3,132.1L980.9,344.5z"/>
		<path class="st3" d="M970.9,372.5c0-40.6,32.9-73.6,73.5-73.6c40.6,0,73.6,32.9,73.6,73.5c0,40.6-32.9,73.6-73.5,73.6c0,0,0,0,0,0
			C1003.8,445.9,970.9,413,970.9,372.5 M1003.4,372.4c0,22.6,18.4,41,41,41c22.6,0,41-18.4,41-41s-18.4-41-41-41l0,0
			C1021.8,331.4,1003.4,349.8,1003.4,372.4"/>
		<polygon class="st4" points="955.8,233.6 915.2,278.8 953.9,317.5 993.6,277.8 		"/>
		<path class="st5" d="M1077.5,155c35.1-35.1,41.8-89.6,16.3-132.1L852.7,304.1c-14.1-7.3,40.2,54,35.3,40.3L1077.5,155z"/>
		<path class="st3" d="M824.5,299c-40.6,0.1-73.5,33-73.5,73.6c0,1.4,0,2.7,0.1,4.1c2.3,40.5,37,71.6,77.5,69.3
			c37.4-2.1,67.2-31.9,69.3-69.3c0.1-1.3,0.1-2.7,0.1-4.1C898,331.9,865.1,299,824.5,299z M865.3,376.5v0.2
			c-2.4,22.5-22.5,38.9-45.1,36.5c-19.2-2-34.5-17.2-36.5-36.5v-0.2c-0.1-1.3-0.2-2.7-0.2-4c0-22.6,18.4-41,41-41s41,18.4,41,41
			C865.5,373.8,865.4,375.2,865.3,376.5L865.3,376.5z"/>
		<path class="st6" d="M934.5,232.9c10.1,0,18.3,8.2,18.3,18.3s-8.2,18.3-18.3,18.3c-10.1,0-18.3-8.2-18.3-18.3l0,0
			C916.1,241.1,924.3,232.9,934.5,232.9C934.4,232.9,934.4,232.9,934.5,232.9"/>
	</g>
	<ellipse class="st7" cx="934.5" cy="651.5" rx="228" ry="47.2"/>
	<ellipse class="st7" cx="243.7" cy="651.5" rx="228" ry="47.2"/>
	<path class="st5" d="M391.4,22.9H206.7L67,162.5l139.7-28.8c0,7.6-3,14.9-8.4,20.3L97.2,255.6c2.6-2.3,6-3.6,9.5-3.6
		c7.8,0,14.2,6.1,14.2,13.6s-6.4,13.6-14.2,13.6s-14.2-6.1-14.2-13.6c0-3.3,1.3-6.4,3.4-8.8l-28.9,29v132.6
		c0,15.2,13,27.6,28.9,27.6h295.5c15.9,0,28.9-12.4,28.9-27.6V50.5C420.3,35.3,407.3,22.9,391.4,22.9z M106.7,415
		c-7.8,0-14.2-6.1-14.2-13.6s6.4-13.6,14.2-13.6s14.2,6.1,14.2,13.6S114.5,415,106.7,415z M106.7,347.1c-7.8,0-14.2-6.1-14.2-13.6
		s6.3-13.6,14.2-13.6s14.2,6.1,14.2,13.6S114.5,347.1,106.7,347.1z"/>
	<rect x="160.7" y="203.6" class="st8" width="209.5" height="13.3"/>
	<rect x="160.7" y="259.1" class="st8" width="209.5" height="13.3"/>
	<rect x="160.7" y="314.5" class="st8" width="209.5" height="13.3"/>
	<rect x="160.7" y="369.9" class="st8" width="209.5" height="13.3"/>
	<rect x="243.7" y="92.8" class="st8" width="126.5" height="13.3"/>
	<rect x="243.7" y="148.2" class="st8" width="126.5" height="13.3"/>
	<path class="st9" d="M97.2,255.6L198.3,154c5.4-5.4,8.4-12.7,8.4-20.3L67,162.5v123.2l28.9-29C96.3,256.3,96.7,255.9,97.2,255.6z
		 M106.7,184.1c7.8,0,14.2,6.1,14.2,13.6s-6.4,13.6-14.2,13.6s-14.2-6.1-14.2-13.6S98.8,184.1,106.7,184.1L106.7,184.1z"/>
	<path class="st3" d="M206.7,22.9L67,162.5h110.9c15.9,0,28.7-12.9,28.8-28.8V22.9z"/>
	<path class="st3" d="M-647.1,391.1c10,32.3,28,54.9,50.1,54.9h295.1c28.9,0,50-33.9,59-77.5c9.4-45.2,6-100.6-14.9-138.8
		c-1.8-3.5-3.8-6.7-5.9-10l-99.8-146.3c-29.7-43.3-65.5-67-102.5-67c-20.1,0-39.8,7-58.3,20.2c-7.9,5.5-15.2,11.8-21.8,18.8
		c-24.4,25.3-45.7,62.4-61.6,108.4l-38.2,110.6C-660.1,305.5-658.7,354.5-647.1,391.1z"/>
	<path class="st10" d="M-647.1,391.1c10,32.3,28,54.9,50.1,54.9h33.1l-12.2-209.8l49.3-112.8l2.4-96.7c-7.9,5.5-15.2,11.8-21.8,18.8
		c-24.4,25.3-45.7,62.4-61.6,108.4l-38.2,110.6C-660.1,305.5-658.7,354.5-647.1,391.1z"/>
	<polygon class="st11" points="-450.6,337.2 -365.3,341.1 -301.9,446 -506.3,446 	"/>
	<path class="st12" d="M-506.3,446H-597c-22,0-40.1-22.6-50.1-54.9l71-155l125.5,101L-506.3,446z"/>
	<path class="st13" d="M-365.3,341.1c0,0,88.5-91.7,107.5-111.4c20.9,38.2,24.4,93.6,14.9,138.8l0,0c-9,43.6-30.1,77.5-59,77.5"/>
	<ellipse class="st7" cx="-447.1" cy="651.5" rx="228" ry="47.2"/>
</g>
</svg>
