<?xml version="1.0" encoding="utf-8"?>
<!-- Generator: Adobe Illustrator 27.1.1, SVG Export Plug-In . SVG Version: 6.00 Build 0)  -->
<svg version="1.1" id="Layer_1" xmlns="http://www.w3.org/2000/svg" xmlns:xlink="http://www.w3.org/1999/xlink" x="0px" y="0px"
	 viewBox="0 0 485.8 726.3" style="enable-background:new 0 0 485.8 726.3;" xml:space="preserve">
<style type="text/css">
	.st0{display:none;}
	.st1{display:inline;fill:#FFBEA7;}
	.st2{fill:#E9EEF1;}
	.st3{fill:#FD8A29;}
	.st4{fill:#CCD1D3;}
	.st5{fill:#F2F7F9;}
	.st6{fill:#DBE0E2;}
	.st7{fill:#F1AB90;}
	.st8{fill:#DADFE2;}
	.st9{fill:#DDE2E5;}
	.st10{fill:#EC772A;}
	.st11{fill:#C8601A;}
	.st12{fill:#D8671D;}
	.st13{fill:#E77B2A;}
</style>
<g id="Background" class="st0">
	<rect x="-1648" y="-370" class="st1" width="2400" height="1350"/>
</g>
<g id="Icons">
	<g id="scissor">
		<path class="st2" d="M289.2,344.5c-4.9,13.6,49.4-47.6,35.3-40.3L83.4,22.9c-25.5,42.6-18.8,97,16.3,132.1L289.2,344.5z"/>
		<path class="st3" d="M279.2,372.5c0-40.6,32.9-73.6,73.5-73.6s73.6,32.9,73.6,73.5c0,40.6-32.9,73.6-73.5,73.6c0,0,0,0,0,0
			C312.1,445.9,279.3,413,279.2,372.5 M311.8,372.4c0,22.6,18.4,41,41,41s41-18.4,41-41s-18.4-41-41-41l0,0
			C330.1,331.4,311.8,349.8,311.8,372.4"/>
		<polygon class="st4" points="264.1,233.6 223.5,278.8 262.2,317.5 301.9,277.8 		"/>
		<path class="st5" d="M385.8,155c35.1-35.1,41.8-89.6,16.3-132.1L161,304.1c-14.1-7.3,40.2,54,35.3,40.3L385.8,155z"/>
		<path class="st3" d="M132.8,299c-40.6,0.1-73.5,33-73.5,73.6c0,1.4,0,2.7,0.1,4.1c2.3,40.5,37,71.6,77.5,69.3
			c37.4-2.1,67.2-31.9,69.3-69.3c0.1-1.3,0.1-2.7,0.1-4.1C206.3,331.9,173.4,299,132.8,299z M173.6,376.5v0.2
			c-2.4,22.5-22.5,38.9-45.1,36.5c-19.2-2-34.5-17.2-36.5-36.5v-0.2c-0.1-1.3-0.2-2.7-0.2-4c0-22.6,18.4-41,41-41s41,18.4,41,41
			C173.8,373.8,173.7,375.2,173.6,376.5L173.6,376.5z"/>
		<path class="st6" d="M242.8,232.9c10.1,0,18.3,8.2,18.3,18.3s-8.2,18.3-18.3,18.3c-10.1,0-18.3-8.2-18.3-18.3l0,0
			C224.4,241.1,232.6,232.9,242.8,232.9C242.7,232.9,242.8,232.9,242.8,232.9"/>
	</g>
	<ellipse class="st7" cx="242.8" cy="651.5" rx="228" ry="47.2"/>
	<ellipse class="st7" cx="-448" cy="651.5" rx="228" ry="47.2"/>
	<path class="st5" d="M-300.3,22.9H-485l-139.7,139.7l139.7-28.8c0,7.6-3,14.9-8.4,20.3l-101.2,101.5c2.6-2.3,6-3.6,9.5-3.6
		c7.8,0,14.2,6.1,14.2,13.6s-6.4,13.6-14.2,13.6s-14.2-6.1-14.2-13.6c0-3.3,1.3-6.4,3.4-8.8l-28.9,29v132.6
		c0,15.2,13,27.6,28.9,27.6h295.5c15.9,0,28.9-12.4,28.9-27.6V50.5C-271.3,35.3-284.4,22.9-300.3,22.9z M-585,415
		c-7.8,0-14.2-6.1-14.2-13.6s6.4-13.6,14.2-13.6s14.2,6.1,14.2,13.6S-577.2,415-585,415z M-585,347.1c-7.8,0-14.2-6.1-14.2-13.6
		s6.3-13.6,14.2-13.6s14.2,6.1,14.2,13.6S-577.2,347.1-585,347.1z"/>
	<rect x="-531" y="203.6" class="st8" width="209.5" height="13.3"/>
	<rect x="-531" y="259.1" class="st8" width="209.5" height="13.3"/>
	<rect x="-531" y="314.5" class="st8" width="209.5" height="13.3"/>
	<rect x="-531" y="369.9" class="st8" width="209.5" height="13.3"/>
	<rect x="-448" y="92.8" class="st8" width="126.5" height="13.3"/>
	<rect x="-448" y="148.2" class="st8" width="126.5" height="13.3"/>
	<path class="st9" d="M-594.5,255.6L-493.4,154c5.4-5.4,8.4-12.7,8.4-20.3l-139.7,28.8v123.2l28.9-29
		C-595.4,256.3-595,255.9-594.5,255.6z M-585,184.1c7.8,0,14.2,6.1,14.2,13.6s-6.4,13.6-14.2,13.6s-14.2-6.1-14.2-13.6
		S-592.9,184.1-585,184.1L-585,184.1z"/>
	<path class="st3" d="M-485,22.9l-139.7,139.7h110.9c15.9,0,28.7-12.9,28.8-28.8V22.9z"/>
	<path class="st3" d="M-1338.8,391.1c10,32.3,28,54.9,50.1,54.9h295.1c28.9,0,50-33.9,59-77.5c9.4-45.2,6-100.6-14.9-138.8
		c-1.8-3.5-3.8-6.7-5.9-10l-99.8-146.3c-29.7-43.3-65.6-67-102.5-67c-20.1,0-39.8,7-58.3,20.2c-7.9,5.5-15.2,11.8-21.8,18.8
		c-24.4,25.3-45.7,62.4-61.6,108.4l-38.2,110.6C-1351.8,305.5-1350.4,354.5-1338.8,391.1z"/>
	<path class="st10" d="M-1338.8,391.1c10,32.3,28,54.9,50.1,54.9h33.1l-12.2-209.8l49.3-112.8l2.4-96.7
		c-7.9,5.5-15.2,11.8-21.8,18.8c-24.4,25.3-45.7,62.4-61.6,108.4l-38.2,110.6C-1351.8,305.5-1350.4,354.5-1338.8,391.1z"/>
	<polygon class="st11" points="-1142.3,337.2 -1057,341.1 -993.6,446 -1198,446 	"/>
	<path class="st12" d="M-1198,446h-90.7c-22,0-40.1-22.6-50.1-54.9l71-155l125.5,101L-1198,446z"/>
	<path class="st13" d="M-1057,341.1c0,0,88.5-91.7,107.5-111.4c20.9,38.2,24.4,93.6,14.9,138.8l0,0c-9,43.6-30.1,77.5-59,77.5"/>
	<ellipse class="st7" cx="-1138.8" cy="651.5" rx="228" ry="47.2"/>
</g>
</svg>
