<?xml version="1.0" encoding="utf-8"?>
<!-- Generator: Adobe Illustrator 27.1.1, SVG Export Plug-In . SVG Version: 6.00 Build 0)  -->
<svg version="1.1" id="Layer_1" xmlns="http://www.w3.org/2000/svg" xmlns:xlink="http://www.w3.org/1999/xlink" x="0px" y="0px"
	 viewBox="0 0 490.5 723.5" style="enable-background:new 0 0 490.5 723.5;" xml:space="preserve">
<style type="text/css">
	.st0{display:none;}
	.st1{display:inline;fill:#FFBEA7;}
	.st2{fill:#E9EEF1;}
	.st3{fill:#FD8A29;}
	.st4{fill:#CCD1D3;}
	.st5{fill:#F2F7F9;}
	.st6{fill:#DBE0E2;}
	.st7{fill:#F1AB90;}
	.st8{fill:#DADFE2;}
	.st9{fill:#DDE2E5;}
	.st10{fill:#EC772A;}
	.st11{fill:#C8601A;}
	.st12{fill:#D8671D;}
	.st13{fill:#E77B2A;}
</style>
<g id="Background" class="st0">
	<rect x="-263.4" y="-362.1" class="st1" width="2400" height="1350"/>
</g>
<g id="Icons">
	<g id="scissor">
		<path class="st2" d="M1673.8,352.4c-4.9,13.6,49.4-47.6,35.3-40.3L1468.1,30.8c-25.5,42.6-18.8,97,16.3,132.1L1673.8,352.4z"/>
		<path class="st3" d="M1663.8,380.4c0-40.6,32.9-73.6,73.5-73.6s73.6,32.9,73.6,73.5c0,40.6-32.9,73.6-73.5,73.6c0,0,0,0,0,0
			C1696.8,453.8,1663.9,420.9,1663.8,380.4 M1696.4,380.3c0,22.6,18.4,41,41,41s41-18.4,41-41s-18.4-41-41-41l0,0
			C1714.7,339.3,1696.4,357.7,1696.4,380.3"/>
		<polygon class="st4" points="1648.7,241.5 1608.1,286.7 1646.8,325.4 1686.5,285.7 		"/>
		<path class="st5" d="M1770.4,162.9c35.1-35.1,41.8-89.6,16.3-132.1l-241.1,281.3c-14.1-7.3,40.2,54,35.3,40.3L1770.4,162.9z"/>
		<path class="st3" d="M1517.4,306.9c-40.6,0.1-73.5,33-73.5,73.6c0,1.4,0,2.7,0.1,4.1c2.3,40.5,37,71.6,77.5,69.3
			c37.4-2.1,67.2-31.9,69.3-69.3c0.1-1.3,0.1-2.7,0.1-4.1C1590.9,339.8,1558,306.9,1517.4,306.9z M1558.2,384.4v0.2
			c-2.4,22.5-22.5,38.9-45.1,36.5c-19.2-2-34.5-17.2-36.5-36.5v-0.2c-0.1-1.3-0.2-2.7-0.2-4c0-22.6,18.4-41,41-41s41,18.4,41,41
			C1558.4,381.7,1558.3,383.1,1558.2,384.4L1558.2,384.4z"/>
		<path class="st6" d="M1627.4,240.8c10.1,0,18.3,8.2,18.3,18.3s-8.2,18.3-18.3,18.3c-10.1,0-18.3-8.2-18.3-18.3l0,0
			C1609,249,1617.2,240.8,1627.4,240.8C1627.4,240.8,1627.4,240.8,1627.4,240.8"/>
	</g>
	<ellipse class="st7" cx="1627.4" cy="659.4" rx="228" ry="47.2"/>
	<ellipse class="st7" cx="936.6" cy="659.4" rx="228" ry="47.2"/>
	<path class="st5" d="M1084.4,30.8H899.6L760,170.4l139.7-28.8c0,7.6-3,14.9-8.4,20.3L790.1,263.5c2.6-2.3,6-3.6,9.5-3.6
		c7.8,0,14.2,6.1,14.2,13.6s-6.4,13.6-14.2,13.6s-14.2-6.1-14.2-13.6c0-3.3,1.3-6.4,3.4-8.8l-28.9,29v132.6
		c0,15.2,13,27.6,28.9,27.6h295.5c15.9,0,28.9-12.4,28.9-27.6V58.4C1113.3,43.2,1100.2,30.8,1084.4,30.8z M799.6,422.9
		c-7.8,0-14.2-6.1-14.2-13.6s6.4-13.6,14.2-13.6s14.2,6.1,14.2,13.6S807.4,422.9,799.6,422.9z M799.6,355c-7.8,0-14.2-6.1-14.2-13.6
		s6.3-13.6,14.2-13.6s14.2,6.1,14.2,13.6S807.4,355,799.6,355z"/>
	<rect x="853.6" y="211.5" class="st8" width="209.5" height="13.3"/>
	<rect x="853.6" y="267" class="st8" width="209.5" height="13.3"/>
	<rect x="853.6" y="322.4" class="st8" width="209.5" height="13.3"/>
	<rect x="853.6" y="377.8" class="st8" width="209.5" height="13.3"/>
	<rect x="936.6" y="100.7" class="st8" width="126.5" height="13.3"/>
	<rect x="936.6" y="156.1" class="st8" width="126.5" height="13.3"/>
	<path class="st9" d="M790.1,263.5l101.2-101.5c5.4-5.4,8.4-12.7,8.4-20.3L760,170.4v123.2l28.9-29
		C789.2,264.2,789.6,263.8,790.1,263.5z M799.6,192c7.8,0,14.2,6.1,14.2,13.6s-6.4,13.6-14.2,13.6s-14.2-6.1-14.2-13.6
		S791.8,192,799.6,192L799.6,192z"/>
	<path class="st3" d="M899.6,30.8L760,170.4h110.9c15.9,0,28.7-12.9,28.8-28.8V30.8z"/>
	<path class="st3" d="M45.8,399c10,32.3,28,54.9,50.1,54.9H391c28.9,0,50-33.9,59-77.5c9.4-45.2,6-100.6-14.9-138.8
		c-1.8-3.5-3.8-6.7-5.9-10L329.4,81.3c-29.7-43.3-65.5-67-102.5-67c-20.1,0-39.8,7-58.3,20.2c-7.9,5.5-15.2,11.8-21.8,18.8
		c-24.4,25.3-45.7,62.4-61.6,108.4L47.1,272.3C32.8,313.5,34.2,362.4,45.8,399z"/>
	<path class="st10" d="M45.8,399c10,32.3,28,54.9,50.1,54.9H129l-12.2-209.8l49.3-112.8l2.4-96.7c-7.9,5.5-15.2,11.8-21.8,18.8
		c-24.4,25.3-45.7,62.4-61.6,108.4L47.1,272.3C32.8,313.5,34.2,362.4,45.8,399z"/>
	<polygon class="st11" points="242.4,345.1 327.6,349 391,453.9 186.6,453.9 	"/>
	<path class="st12" d="M186.6,453.9H95.9c-22,0-40.1-22.6-50.1-54.9l71-155l125.5,101L186.6,453.9z"/>
	<path class="st13" d="M327.6,349c0,0,88.5-91.7,107.5-111.4c20.9,38.2,24.4,93.6,14.9,138.8l0,0c-9,43.6-30.1,77.5-59,77.5"/>
	<ellipse class="st7" cx="245.9" cy="659.4" rx="228" ry="47.2"/>
</g>
</svg>
